<?xml version="1.0" standalone="no"?>
<!DOCTYPE svg PUBLIC "-//W3C//DTD SVG 20010904//EN"
 "http://www.w3.org/TR/2001/REC-SVG-20010904/DTD/svg10.dtd">
<svg version="1.0" xmlns="http://www.w3.org/2000/svg"
 width="768.000000pt" height="768.000000pt" viewBox="0 0 768.000000 768.000000"
 preserveAspectRatio="xMidYMid meet">

<g transform="translate(0.000000,768.000000) scale(0.100000,-0.100000)"
fill="#000000" stroke="none">
<path d="M3655 6450 c-808 -59 -1529 -474 -1984 -1145 -460 -678 -572 -1542
-301 -2328 186 -540 554 -1010 1040 -1330 217 -142 540 -283 797 -347 331 -82
734 -97 1073 -39 946 161 1729 828 2037 1734 259 762 149 1626 -290 2285 -394
590 -984 987 -1672 1125 -214 43 -485 60 -700 45z m545 -340 c745 -123 1369
-584 1700 -1255 163 -330 234 -640 234 -1015 0 -376 -70 -678 -235 -1015 -332
-678 -974 -1144 -1739 -1262 -158 -24 -481 -24 -640 0 -764 117 -1407 583
-1740 1262 -163 333 -234 640 -234 1015 0 375 71 684 234 1015 352 716 1047
1195 1850 1275 136 14 428 3 570 -20z"/>
<path d="M3680 4615 l0 -615 -615 0 -615 0 0 -160 0 -160 615 0 615 0 0 -615
0 -615 160 0 160 0 0 615 0 615 615 0 615 0 0 160 0 160 -615 0 -615 0 0 615
0 615 -160 0 -160 0 0 -615z"/>
</g>
</svg>
